<?xml version="1.0" standalone="no"?>
<!DOCTYPE svg PUBLIC "-//W3C//DTD SVG 20010904//EN"
 "http://www.w3.org/TR/2001/REC-SVG-20010904/DTD/svg10.dtd">
<svg version="1.0" xmlns="http://www.w3.org/2000/svg"
 width="355.000000pt" height="355.000000pt" viewBox="0 0 355.000000 355.000000"
 preserveAspectRatio="xMidYMid meet">
<metadata>
Created by potrace 1.14, written by Peter Selinger 2001-2017
</metadata>
<g transform="translate(0.000000,355.000000) scale(0.100000,-0.100000)"
fill="#000000" stroke="none">
<path d="M1620 3341 c0 -7 -6 -11 -14 -8 -7 3 -19 0 -26 -6 -10 -9 -11 -9 -5
2 6 10 4 12 -5 6 -7 -4 -29 -10 -49 -12 -19 -2 -42 -9 -50 -16 -12 -10 -13 -9
-6 2 6 11 4 13 -11 7 -10 -5 -26 -9 -34 -10 -8 0 -18 -5 -22 -11 -5 -6 -8 -4
-8 5 -1 11 -4 10 -15 -4 -8 -11 -15 -15 -15 -10 0 5 -9 10 -19 10 -15 0 -17
-4 -10 -13 8 -9 6 -11 -11 -8 -25 5 -52 -4 -45 -15 3 -5 -4 -6 -15 -3 -13 3
-20 0 -20 -8 0 -11 -2 -11 -10 1 -5 8 -10 10 -10 5 0 -6 -10 -12 -22 -12 -13
-1 -28 -10 -35 -19 -8 -10 -13 -13 -13 -6 0 7 -12 2 -27 -12 -15 -14 -29 -23
-32 -20 -3 3 1 9 9 14 11 7 11 10 2 10 -7 0 -15 -7 -18 -15 -4 -8 -10 -12 -15
-9 -5 3 -9 -3 -10 -13 0 -11 -3 -13 -6 -5 -3 9 -10 7 -24 -9 -13 -15 -19 -17
-19 -8 0 9 -8 4 -21 -11 -15 -17 -19 -19 -15 -7 3 11 2 16 -4 12 -6 -3 -10
-13 -10 -21 0 -8 -5 -12 -10 -9 -5 3 -10 1 -10 -4 0 -6 -6 -10 -12 -9 -7 2
-12 -2 -11 -9 2 -7 -6 -10 -18 -8 -11 2 -22 -2 -26 -10 -3 -8 -12 -15 -20 -15
-8 0 -11 -5 -8 -10 4 -6 -7 -13 -24 -16 -17 -4 -29 -10 -26 -14 3 -4 -3 -14
-12 -21 -12 -10 -14 -10 -9 -1 4 6 2 12 -3 12 -6 0 -11 -7 -11 -15 0 -8 -5
-15 -11 -15 -5 0 -7 -6 -3 -12 5 -8 1 -8 -12 2 -10 8 -16 11 -12 6 4 -5 0 -15
-8 -23 -8 -8 -12 -19 -9 -24 4 -5 -1 -6 -9 -3 -9 4 -18 -1 -22 -10 -3 -9 -10
-13 -15 -10 -5 3 -6 -2 -3 -11 4 -9 3 -15 -2 -13 -15 5 -146 -131 -138 -143 4
-7 3 -9 -3 -6 -5 3 -17 -3 -26 -14 -9 -10 -14 -19 -10 -19 4 0 -2 -7 -13 -15
-10 -8 -16 -15 -12 -15 5 0 -2 -10 -14 -22 -13 -13 -27 -22 -32 -20 -5 2 -3
-5 5 -14 12 -16 12 -17 -4 -11 -11 4 -16 3 -12 -3 3 -6 1 -10 -5 -10 -6 0 -8
-4 -5 -10 3 -5 1 -10 -5 -10 -6 0 -8 -4 -5 -10 3 -5 1 -10 -4 -10 -6 0 -11 -7
-11 -15 0 -8 -4 -15 -8 -15 -4 0 -15 -16 -24 -35 -9 -20 -11 -32 -4 -29 6 3 3
-1 -6 -9 -10 -8 -14 -18 -10 -22 4 -5 -2 -5 -12 -1 -16 5 -17 4 -6 -9 10 -12
10 -15 0 -15 -7 0 -10 -8 -7 -19 2 -11 -3 -24 -14 -32 -19 -14 -27 -35 -9 -24
6 3 7 -1 4 -9 -3 -9 -11 -13 -17 -9 -6 4 -8 0 -4 -10 3 -10 2 -17 -4 -17 -6 0
-7 -4 -4 -10 3 -5 1 -10 -5 -10 -6 0 -8 -4 -5 -10 3 -5 -1 -23 -10 -40 -9 -17
-13 -35 -10 -40 3 -6 1 -10 -5 -10 -6 0 -9 -4 -6 -8 3 -5 0 -19 -7 -33 -7 -13
-12 -43 -12 -66 0 -22 -3 -39 -6 -37 -4 2 -9 -3 -13 -11 -3 -8 -1 -17 5 -21 6
-4 6 -11 -2 -20 -6 -7 -9 -21 -5 -29 3 -8 0 -15 -7 -15 -8 0 -6 -4 3 -10 12
-7 12 -10 1 -10 -7 0 -11 -6 -7 -15 3 -8 0 -15 -7 -15 -9 0 -9 -2 0 -8 13 -8
11 -41 -3 -64 -4 -6 -3 -8 3 -5 7 4 10 -3 9 -17 0 -13 -4 -22 -8 -19 -5 2 -8
-1 -8 -6 0 -6 5 -11 10 -11 11 0 7 -41 -6 -61 -4 -8 -3 -9 4 -5 14 9 15 1 3
-23 -5 -9 -6 -23 -1 -31 4 -7 4 -24 -1 -37 -5 -13 -5 -22 -1 -19 5 3 10 -12
11 -32 2 -49 5 -64 15 -81 6 -9 5 -12 -1 -8 -5 3 -10 -1 -10 -9 0 -9 6 -13 16
-9 13 5 14 4 3 -6 -14 -15 -16 -33 -3 -25 5 4 7 -4 3 -16 -4 -16 -2 -19 8 -13
10 6 11 4 4 -6 -13 -22 -13 -37 1 -43 8 -2 11 -15 8 -30 -4 -18 -1 -26 8 -26
11 0 11 -2 -1 -10 -10 -6 -11 -10 -2 -10 6 0 12 -7 12 -15 0 -8 5 -15 11 -15
8 0 7 -6 -2 -17 -8 -9 -9 -14 -3 -10 7 4 15 0 18 -9 4 -10 2 -13 -7 -8 -8 5
-7 2 2 -9 7 -9 10 -17 5 -17 -4 0 1 -7 12 -16 10 -8 12 -13 4 -9 -8 4 -6 -1 4
-9 11 -9 14 -16 8 -16 -8 0 -4 -9 8 -22 11 -12 20 -30 20 -40 0 -10 5 -18 11
-18 5 0 7 -4 4 -10 -3 -5 3 -17 13 -26 12 -10 18 -24 14 -37 -4 -15 -2 -18 8
-12 8 5 11 3 8 -6 -2 -7 5 -22 16 -34 12 -11 23 -29 24 -40 2 -11 7 -22 12
-25 4 -3 12 -15 19 -28 7 -13 17 -20 24 -15 7 4 6 0 -2 -10 -8 -10 -11 -20 -7
-24 3 -3 6 -1 6 5 0 6 6 9 14 6 8 -3 12 -12 9 -20 -3 -8 0 -14 7 -14 6 0 8 -4
5 -10 -3 -5 3 -10 15 -10 12 0 18 -4 15 -10 -6 -10 53 -76 66 -73 4 2 11 -6
14 -17 4 -11 11 -18 16 -15 5 4 9 -1 9 -9 0 -9 7 -16 15 -16 9 0 19 -10 24
-23 5 -12 20 -31 34 -42 14 -10 23 -24 19 -29 -3 -6 2 -5 11 3 9 7 17 9 17 4
0 -12 50 -67 50 -56 0 4 5 0 11 -10 6 -9 14 -15 18 -12 5 2 14 -2 21 -10 7 -8
17 -12 23 -8 5 3 7 1 4 -4 -4 -6 1 -17 10 -24 14 -12 16 -12 9 1 -4 8 0 6 8
-4 9 -11 16 -16 16 -12 0 5 9 -2 21 -15 11 -13 18 -17 14 -9 -5 12 -4 12 7 -1
7 -9 18 -14 25 -12 6 2 15 -1 19 -8 5 -8 3 -9 -6 -4 -8 5 -11 4 -7 -3 4 -5 16
-8 27 -5 12 3 22 -1 26 -10 3 -9 14 -14 25 -12 10 2 22 -1 25 -7 4 -7 2 -8 -4
-4 -8 5 -10 2 -6 -9 5 -13 9 -13 22 -3 12 10 14 10 8 1 -6 -12 5 -18 27 -14 4
0 7 -4 7 -10 0 -5 5 -7 10 -4 6 3 13 -1 16 -10 6 -13 8 -14 15 -3 7 10 9 10 9
1 0 -7 12 -13 26 -13 15 0 23 -4 19 -10 -4 -7 3 -9 19 -6 14 3 29 0 32 -6 5
-7 2 -8 -6 -3 -9 5 -11 4 -6 -4 6 -9 11 -9 24 1 13 11 14 11 7 -1 -6 -11 -3
-13 13 -9 16 5 22 2 22 -10 0 -15 2 -15 10 -2 8 12 10 12 10 1 0 -8 7 -11 20
-8 11 3 20 1 20 -4 0 -4 7 -5 17 -2 12 5 14 3 8 -7 -6 -10 -4 -11 6 -4 22 13
40 14 45 0 3 -8 17 -11 36 -8 23 4 29 2 23 -8 -6 -10 -4 -11 6 -4 19 12 39 14
39 4 0 -5 8 -7 18 -5 9 1 23 -3 31 -9 11 -8 13 -8 7 2 -9 16 6 16 23 -1 11
-10 12 -9 6 1 -8 16 26 13 37 -3 4 -5 10 -2 14 8 6 17 7 17 21 0 8 -10 12 -13
9 -8 -3 8 32 10 107 9 62 -2 117 2 123 7 8 7 15 6 19 -1 5 -8 11 -8 20 0 8 7
19 9 25 5 5 -3 10 -2 10 3 0 5 10 8 23 7 12 -1 27 0 32 4 19 11 40 10 47 -2 5
-8 8 -7 8 5 0 9 5 20 12 24 7 4 8 3 4 -4 -10 -17 6 -15 33 5 14 9 22 12 18 6
-3 -5 0 -10 8 -10 8 0 12 4 9 8 -3 5 13 12 35 15 24 4 38 11 34 17 -4 6 -1 7
7 2 7 -4 16 -2 21 6 7 12 9 12 9 -1 0 -9 6 -6 16 9 11 15 20 19 27 12 6 -6 14
-5 24 5 8 8 19 12 24 9 5 -4 9 -1 9 5 0 6 5 8 10 5 6 -3 10 1 10 11 0 13 3 14
14 5 11 -9 16 -9 22 0 5 8 3 10 -7 4 -10 -6 -11 -5 -4 3 6 7 23 13 37 14 15 1
24 6 21 12 -4 5 3 7 16 3 19 -5 20 -3 9 11 -10 12 -10 14 0 8 6 -4 12 -2 12 3
0 6 6 10 13 9 6 -2 11 3 9 10 -2 10 2 10 19 1 15 -8 19 -8 15 0 -4 6 0 11 8
11 9 0 16 5 16 11 0 5 5 7 10 4 6 -4 9 -1 8 7 -2 7 3 12 10 10 6 -1 12 3 12 9
0 5 4 8 8 5 5 -3 19 6 31 20 12 14 27 22 33 18 7 -5 8 -3 3 6 -6 10 -4 12 8 7
12 -4 14 -2 10 10 -4 10 -2 14 5 9 6 -3 13 3 17 14 4 11 11 18 16 15 5 -4 13
5 19 19 5 14 12 26 15 26 4 0 3 -5 -1 -12 -4 -7 -3 -8 4 -4 7 4 12 14 12 22 0
8 5 14 11 14 6 0 8 7 5 16 -5 14 -4 15 9 4 12 -10 15 -10 15 4 0 9 8 16 17 16
9 0 13 3 10 7 -8 7 53 48 66 45 4 -1 3 7 -4 19 -6 12 -7 19 -1 15 12 -7 35 18
25 28 -4 4 0 4 9 1 13 -5 16 -1 14 19 -3 22 -1 24 11 14 11 -9 13 -8 11 3 -2
8 3 13 10 11 8 -1 11 2 7 8 -3 5 -1 10 5 10 7 0 10 7 6 15 -3 9 0 15 10 15 8
0 12 5 9 10 -3 6 -2 10 4 10 6 0 8 6 5 14 -3 7 2 16 10 19 9 4 16 14 16 22 0
9 5 13 10 10 6 -3 10 -1 10 5 0 6 5 8 12 4 7 -4 8 -3 4 5 -4 6 -13 8 -19 4
-13 -8 12 28 28 39 6 4 6 8 1 8 -5 0 -1 10 10 22 13 14 14 19 4 14 -8 -4 -4 2
9 13 13 12 17 21 10 21 -8 0 -7 5 5 13 9 7 19 21 20 32 2 11 8 19 13 18 5 -1
10 4 10 12 0 8 -5 11 -11 8 -5 -4 0 7 12 24 12 17 19 33 15 36 -3 4 1 17 10
31 9 13 14 34 12 46 -3 17 -1 19 9 11 11 -9 13 -5 10 19 -2 19 0 29 6 25 6 -4
7 1 3 10 -3 10 0 21 8 26 12 7 12 9 -1 9 -11 0 -12 2 -2 8 7 5 13 31 15 59 1
28 5 49 9 47 4 -3 6 14 5 36 -2 22 1 40 4 40 4 0 6 8 4 18 -1 9 0 21 3 27 9
15 9 45 0 51 -4 3 -8 10 -8 15 0 6 5 7 12 3 7 -5 8 -3 3 7 -13 20 -13 49 -1
49 6 0 4 5 -4 10 -13 9 -13 10 0 10 9 0 11 3 5 8 -15 10 -19 46 -5 37 9 -6 9
-2 1 13 -8 15 -8 23 0 28 9 5 6 11 -6 21 -18 13 -18 13 1 13 15 0 16 2 5 9 -7
5 -10 14 -6 20 4 7 1 18 -5 26 -8 10 -9 15 -2 15 13 0 4 31 -12 42 -8 6 -8 8
0 8 6 0 11 7 11 15 0 8 -4 15 -9 15 -5 0 -6 9 -3 21 4 13 0 28 -12 41 -10 12
-12 18 -5 14 6 -4 12 -3 12 1 0 5 -6 15 -12 22 -10 11 -10 13 0 7 17 -10 15 4
-5 27 -13 15 -14 18 -3 12 13 -8 13 -6 2 8 -8 9 -11 21 -7 27 3 5 1 10 -4 10
-6 0 -11 9 -11 20 0 11 -6 20 -12 20 -9 0 -8 4 2 10 12 8 12 10 -5 10 -15 0
-17 2 -6 9 9 6 10 11 2 15 -6 4 -9 12 -6 17 4 5 0 9 -7 9 -9 0 -9 3 2 10 13 8
12 10 -3 10 -10 0 -15 5 -12 10 3 6 0 10 -7 10 -9 0 -9 3 2 10 10 6 11 10 3
10 -7 0 -13 9 -13 21 0 13 -4 18 -12 13 -8 -5 -9 -2 -5 9 4 12 1 17 -11 18
-11 0 -13 2 -4 6 10 4 8 8 -5 18 -18 13 -19 17 -22 56 0 12 -6 17 -12 13 -7
-4 -9 2 -7 17 2 14 -2 24 -9 25 -7 1 -19 2 -25 3 -9 1 -8 4 2 11 8 5 10 10 5
10 -6 0 -16 14 -23 30 -9 18 -18 27 -25 23 -7 -4 -5 2 3 12 9 11 10 16 3 11
-8 -4 -13 -2 -13 4 0 6 -5 8 -11 4 -8 -4 -8 0 0 15 7 12 8 21 4 20 -21 -4 -33
2 -33 17 0 8 -4 12 -10 9 -5 -3 -10 -1 -10 6 0 6 -8 18 -17 26 -12 10 -13 12
-3 8 8 -3 7 0 -3 7 -32 23 -58 46 -60 55 -1 4 -5 7 -9 6 -5 -2 -8 2 -8 7 0 6
-10 15 -22 20 -14 5 -17 9 -8 10 9 0 6 5 -9 13 -13 6 -29 21 -35 32 -6 11 -17
24 -24 28 -7 5 -10 12 -7 18 4 5 -2 6 -11 2 -12 -4 -15 -3 -10 5 5 8 -1 12
-16 12 -17 0 -19 3 -9 9 10 6 5 12 -17 22 -17 7 -28 17 -26 21 3 4 -7 8 -23 9
-15 0 -22 3 -15 6 6 2 12 9 12 14 0 6 -4 7 -10 4 -5 -3 -10 -1 -10 6 0 8 -5 7
-17 -2 -9 -8 -14 -9 -10 -3 8 14 -10 30 -38 36 -11 2 -19 10 -17 17 2 8 -3 11
-11 8 -7 -3 -24 4 -38 14 -13 10 -28 19 -33 19 -5 0 -15 8 -23 18 -14 16 -14
16 -9 -3 6 -18 4 -18 -13 3 -11 12 -24 22 -31 22 -6 0 -18 7 -27 15 -8 8 -19
13 -24 10 -5 -4 -9 -1 -9 4 0 6 -7 11 -15 11 -8 0 -15 6 -15 13 0 8 -4 7 -10
-3 -6 -10 -10 -11 -10 -2 0 6 -8 12 -17 12 -10 0 -26 7 -36 15 -11 7 -25 11
-33 8 -8 -3 -14 -1 -14 3 0 5 -14 10 -30 11 -17 1 -38 9 -46 18 -17 17 -28 20
-19 5 3 -5 1 -10 -4 -10 -6 0 -11 4 -11 9 0 5 -10 7 -22 3 -16 -4 -19 -2 -13
9 7 11 5 11 -10 -1 -10 -8 -16 -10 -12 -3 5 7 1 12 -10 11 -10 0 -27 3 -37 7
-15 7 -17 5 -11 -6 6 -11 5 -11 -5 -2 -7 6 -19 9 -28 6 -11 -5 -13 -3 -7 7 6
9 4 11 -6 5 -17 -11 -61 -16 -55 -6 3 4 -33 8 -80 9 -46 0 -89 4 -96 8 -8 5
-9 2 -5 -9 6 -16 4 -15 -20 0 -15 10 -24 13 -20 7 4 -8 -2 -11 -18 -10 -14 0
-25 6 -25 11 0 6 -4 4 -9 -3 -4 -8 -12 -14 -16 -14 -4 0 -12 6 -16 14 -7 11
-9 11 -9 -1z"/>
<path d="M2880 2896 c0 -2 8 -10 18 -17 15 -13 16 -12 3 4 -13 16 -21 21 -21
13z"/>
<path d="M566 2825 c-11 -8 -15 -15 -9 -15 6 0 16 7 23 15 16 19 11 19 -14 0z"/>
<path d="M810 380 c0 -5 5 -10 11 -10 5 0 7 5 4 10 -3 6 -8 10 -11 10 -2 0 -4
-4 -4 -10z"/>
</g>
</svg>
